<svg width="23" height="23" viewBox="0 0 23 23" fill="none" xmlns="http://www.w3.org/2000/svg">
<circle cx="11.5" cy="11.5" r="10.9" stroke="black" stroke-width="1.2"/>
<path fill-rule="evenodd" clip-rule="evenodd" d="M10.6626 11.2298C12.5926 11.2298 14.3335 12.1149 15.4347 13.5367C14.9283 11.441 12.981 9.87561 10.6626 9.87561C10.3631 9.87561 10.121 9.63348 10.121 9.33394V8.29232L7.50797 10.5532L10.121 12.8347V11.7714C10.121 11.4719 10.3631 11.2298 10.6626 11.2298M15.9531 16.3746C15.7034 16.3746 15.4856 16.204 15.4266 15.9613C14.9445 13.9848 13.2486 12.5569 11.2043 12.3408V12.948C11.2043 13.3304 10.9773 13.6711 10.6123 13.8364C10.2163 14.0167 9.75426 13.9517 9.43305 13.6717L6.68897 11.2754C6.47609 11.089 6.35422 10.8252 6.35422 10.5517C6.35422 10.2781 6.47609 10.0144 6.68897 9.82802L9.43305 7.43169C9.75426 7.15165 10.2163 7.08665 10.6123 7.26702C10.9773 7.43223 11.2043 7.77294 11.2043 8.15535V8.8151C14.2506 9.08215 16.6459 11.5809 16.6459 14.6142C16.6459 15.0529 16.5896 15.5058 16.4791 15.9608C16.4206 16.204 16.2033 16.3746 15.9531 16.3746" fill="#111111"/>
</svg>
