<svg width="17" height="18" viewBox="0 0 17 18" fill="none" xmlns="http://www.w3.org/2000/svg">
<path fill-rule="evenodd" clip-rule="evenodd" d="M5.00038 17L5.00038 4L6.20038 5.6C6.53138 6.042 7.15838 6.131 7.60038 5.8C7.86238 5.604 8.00038 5.303 8.00038 4.999C8.00038 4.791 7.93538 4.58 7.80038 4.4L4.80038 0.4C4.61338 0.15 4.32038 0.002 4.00938 0C3.69638 -0.002 3.40138 0.139999 3.21038 0.386999L0.210384 4.249C-0.128616 4.684 -0.0496158 5.313 0.387384 5.652C0.822384 5.991 1.45138 5.912 1.79038 5.476L3.00038 3.918L3.00038 17C3.00038 17.552 3.44738 18 4.00038 18C4.55338 18 5.00038 17.552 5.00038 17" fill="#BDBDBD"/>
<path fill-rule="evenodd" clip-rule="evenodd" d="M12 0.999979V14L10.8 12.4C10.469 11.958 9.84195 11.869 9.39995 12.2C8.95795 12.531 8.86895 13.157 9.19995 13.6L12.2 17.6C12.387 17.85 12.68 17.998 12.991 18C13.304 18.002 13.599 17.86 13.79 17.613L16.79 13.751C16.932 13.569 17 13.353 17 13.138C17 12.84 16.867 12.545 16.613 12.348C16.178 12.009 15.549 12.088 15.21 12.524L14 14.082V0.999979C14 0.447979 13.553 -2.09808e-05 13 -2.09808e-05C12.447 -2.09808e-05 12 0.447979 12 0.999979" fill="#111111"/>
</svg>
